<svg width="904" height="723" viewBox="0 0 904 723" fill="none" xmlns="http://www.w3.org/2000/svg">
<path d="M781.811 449.52H823.13C821.57 455.79 819.831 461.97 817.931 468.11C772.401 615.55 635.031 722.66 472.641 722.66C424.381 722.719 376.601 713.081 332.138 694.317C287.675 675.553 247.436 648.046 213.811 613.43H273.271C329.978 658.418 400.264 682.852 472.651 682.74C612.731 682.74 731.891 593.13 775.911 468.11C778.07 461.99 780.037 455.793 781.811 449.52Z" fill="#CED1D3"/>
<path d="M163.311 174.54C167.237 168.053 171.354 161.72 175.661 155.54C240.901 61.5398 349.591 0.0498047 472.661 0.0498047C672.221 0.0498047 833.991 161.83 833.991 361.39C834.002 383.137 832.057 404.841 828.181 426.24H787.521C791.894 404.9 794.092 383.173 794.081 361.39C794.081 183.87 650.181 39.9698 472.661 39.9698C425.556 39.914 379.017 50.2359 336.353 70.2017C293.689 90.1675 255.947 119.287 225.811 155.49C220.657 161.65 215.747 167.983 211.081 174.49L163.311 174.54Z" fill="#CED1D3"/>
<path d="M176.49 231.6L163.47 277.8H216.87L210.72 300.78H156.99L121.63 426.19H90.1602L145.01 231.6L153.11 202.86L542.95 202.24L535.26 230.98L176.49 231.6Z" fill="url(#paint0_linear_480_2)"/>
<path d="M233.89 253.82L227.02 277.82L191.02 403.23L184.42 426.23H276.19L282.78 403.23L318.78 277.82L325.65 253.82H233.89ZM259.45 403.21H215.72L251.72 277.8H295.45L259.45 403.21Z" fill="url(#paint1_linear_480_2)"/>
<path d="M354.05 277.81L340.06 326.6H407.16L400.29 350.57L385.2 403.21L378.61 426.19H286.84L293.43 403.21H361.82L376.91 350.57H308.52L315.39 326.6L329.38 277.81L336.25 253.82H428.03L421.15 277.81H354.05Z" fill="url(#paint2_linear_480_2)"/>
<path d="M455.681 277.81L441.69 326.6H508.801L501.931 350.57L486.84 403.21L480.24 426.19H388.48L395.061 403.21H463.45L478.541 350.57H410.151L417.031 326.6L431.021 277.81L437.891 253.82H529.661L522.791 277.81H455.681Z" fill="url(#paint3_linear_480_2)"/>
<path d="M211.091 174.54H557.481L555.231 183.12H600.701L601.461 180.42L609.531 151.63L612.221 142.08H566.01L562.481 155.49H175.661C171.354 161.71 167.237 168.043 163.311 174.49L211.091 174.54Z" fill="#CED1D3"/>
<path d="M568.216 353.366L598.169 305.996H607.933L587.744 401H577.848L593.154 328.691H592.891L563.466 375.27L553.965 328.691L553.701 328.955L538.395 401H528.499L548.687 305.996H558.32L568.216 353.366ZM685.468 305.996L683.753 314.309H644.299L637.042 348.088H665.411L663.696 356.401H635.327L627.542 392.687H667.919L666.203 401H615.93L636.119 305.996H685.468ZM759.176 326.58H749.28C750.864 318.663 746.509 312.462 738.46 312.462C718.404 312.462 711.279 339.643 708.112 354.29C705.209 368.144 700.986 394.534 719.987 394.534C729.883 394.534 737.405 387.145 739.516 377.777H749.412C745.19 393.215 733.71 402.847 717.876 402.847C691.75 402.847 694.125 374.214 698.347 354.026C702.834 333.178 713.258 304.149 740.044 304.149C753.239 304.149 761.156 313.385 759.176 326.58Z" fill="#CED1D3"/>
<path d="M568.216 353.366L567.54 353.507L567.889 355.174L568.799 353.735L568.216 353.366ZM598.169 305.996V305.306H597.788L597.585 305.627L598.169 305.996ZM607.933 305.996L608.608 306.139L608.785 305.306H607.933V305.996ZM587.744 401V401.69H588.303L588.419 401.143L587.744 401ZM577.848 401L577.173 400.857L576.997 401.69H577.848V401ZM593.154 328.691L593.829 328.834L594.006 328.001H593.154V328.691ZM592.891 328.691V328.001H592.51L592.307 328.323L592.891 328.691ZM563.466 375.27L562.79 375.408L563.133 377.089L564.049 375.638L563.466 375.27ZM553.965 328.691L554.641 328.554L554.385 327.296L553.477 328.203L553.965 328.691ZM553.701 328.955L553.213 328.467L553.069 328.612L553.026 328.812L553.701 328.955ZM538.395 401V401.69H538.954L539.07 401.143L538.395 401ZM528.499 401L527.824 400.857L527.647 401.69H528.499V401ZM548.687 305.996V305.306H548.128L548.012 305.853L548.687 305.996ZM558.32 305.996L558.995 305.855L558.88 305.306H558.32V305.996ZM568.799 353.735L598.752 306.365L597.585 305.627L567.633 352.997L568.799 353.735ZM598.169 306.686H607.933V305.306H598.169V306.686ZM607.258 305.853L587.07 400.857L588.419 401.143L608.608 306.139L607.258 305.853ZM587.744 400.31H577.848V401.69H587.744V400.31ZM578.523 401.143L593.829 328.834L592.479 328.549L577.173 400.857L578.523 401.143ZM593.154 328.001H592.891V329.381H593.154V328.001ZM592.307 328.323L562.882 374.901L564.049 375.638L593.474 329.06L592.307 328.323ZM564.142 375.132L554.641 328.554L553.289 328.829L562.79 375.408L564.142 375.132ZM553.477 328.203L553.213 328.467L554.189 329.443L554.453 329.179L553.477 328.203ZM553.026 328.812L537.72 400.857L539.07 401.143L554.376 329.099L553.026 328.812ZM538.395 400.31H528.499V401.69H538.395V400.31ZM529.174 401.143L549.362 306.139L548.012 305.853L527.824 400.857L529.174 401.143ZM548.687 306.686H558.32V305.306H548.687V306.686ZM557.644 306.137L567.54 353.507L568.891 353.225L558.995 305.855L557.644 306.137ZM685.468 305.996L686.144 306.135L686.315 305.306H685.468V305.996ZM683.753 314.309V314.999H684.315L684.428 314.448L683.753 314.309ZM644.299 314.309V313.619H643.742L643.625 314.164L644.299 314.309ZM637.042 348.088L636.368 347.943L636.188 348.778H637.042V348.088ZM665.411 348.088L666.087 348.227L666.258 347.398H665.411V348.088ZM663.696 356.401V357.091H664.258L664.372 356.54L663.696 356.401ZM635.327 356.401V355.711H634.769L634.652 356.256L635.327 356.401ZM627.542 392.687L626.867 392.542L626.688 393.377H627.542V392.687ZM667.919 392.687L668.594 392.827L668.765 391.997H667.919V392.687ZM666.203 401V401.69H666.765L666.879 401.139L666.203 401ZM615.93 401L615.255 400.857L615.078 401.69H615.93V401ZM636.119 305.996V305.306H635.56L635.444 305.853L636.119 305.996ZM684.792 305.857L683.077 314.169L684.428 314.448L686.144 306.135L684.792 305.857ZM683.753 313.619H644.299V314.999H683.753V313.619ZM643.625 314.164L636.368 347.943L637.717 348.233L644.974 314.454L643.625 314.164ZM637.042 348.778H665.411V347.398H637.042V348.778ZM664.736 347.949L663.02 356.261L664.372 356.54L666.087 348.227L664.736 347.949ZM663.696 355.711H635.327V357.091H663.696V355.711ZM634.652 356.256L626.867 392.542L628.216 392.832L636.002 356.546L634.652 356.256ZM627.542 393.377H667.919V391.997H627.542V393.377ZM667.243 392.548L665.527 400.861L666.879 401.139L668.594 392.827L667.243 392.548ZM666.203 400.31H615.93V401.69H666.203V400.31ZM616.605 401.143L636.793 306.139L635.444 305.853L615.255 400.857L616.605 401.143ZM636.119 306.686H685.468V305.306H636.119V306.686ZM759.176 326.58V327.27H759.771L759.859 326.683L759.176 326.58ZM749.28 326.58L748.604 326.445L748.438 327.27H749.28V326.58ZM708.112 354.29L707.437 354.144L707.436 354.148L708.112 354.29ZM739.516 377.777V377.087H738.964L738.843 377.625L739.516 377.777ZM749.412 377.777L750.078 377.959L750.316 377.087H749.412V377.777ZM698.347 354.026L697.673 353.881L697.672 353.885L698.347 354.026ZM759.176 325.89H749.28V327.27H759.176V325.89ZM749.957 326.716C750.778 322.607 750.072 318.867 748.035 316.139C745.991 313.401 742.671 311.772 738.46 311.772V313.152C742.298 313.152 745.18 314.623 746.929 316.965C748.686 319.317 749.365 322.637 748.604 326.445L749.957 326.716ZM738.46 311.772C728.056 311.772 721.078 318.839 716.346 327.554C711.611 336.274 709.022 346.816 707.437 354.144L708.786 354.436C710.369 347.117 712.925 336.745 717.559 328.212C722.195 319.675 728.808 313.152 738.46 313.152V311.772ZM707.436 354.148C705.986 361.073 704.179 371.234 705.15 379.686C705.636 383.915 706.825 387.799 709.176 390.635C711.553 393.502 715.057 395.224 719.987 395.224V393.844C715.418 393.844 712.323 392.268 710.239 389.754C708.129 387.209 706.992 383.629 706.521 379.529C705.579 371.323 707.335 361.361 708.787 354.431L707.436 354.148ZM719.987 395.224C730.268 395.224 738.021 387.547 740.189 377.928L738.843 377.625C736.788 386.743 729.499 393.844 719.987 393.844V395.224ZM739.516 378.467H749.412V377.087H739.516V378.467ZM748.747 377.595C744.598 392.764 733.368 402.157 717.876 402.157V403.537C734.052 403.537 745.782 393.666 750.078 377.959L748.747 377.595ZM717.876 402.157C711.476 402.157 706.901 400.407 703.667 397.542C700.424 394.668 698.457 390.608 697.405 385.858C695.295 376.331 696.913 364.252 699.023 354.167L697.672 353.885C695.559 363.988 693.879 376.319 696.057 386.156C697.15 391.088 699.223 395.448 702.751 398.574C706.288 401.708 711.213 403.537 717.876 403.537V402.157ZM699.022 354.171C701.259 343.775 704.965 331.405 711.409 321.65C717.84 311.914 726.951 304.839 740.044 304.839V303.459C726.35 303.459 716.857 310.898 710.257 320.889C703.671 330.86 699.922 343.429 697.673 353.881L699.022 354.171ZM740.044 304.839C746.477 304.839 751.548 307.086 754.776 310.864C758.003 314.643 759.46 320.039 758.494 326.478L759.859 326.683C760.872 319.927 759.36 314.106 755.825 309.968C752.29 305.829 746.805 303.459 740.044 303.459V304.839Z" fill="#CCCCCC"/>
<path d="M864.08 449.52C862.293 455.786 860.323 461.983 858.17 468.11H514.49L453.04 574.54L442.32 593.13H131.52V574.54H431.58L493.02 468.11L503.75 449.52H864.08Z" fill="#CED1D3"/>
<path d="M136.06 603.28H90.1602L101.37 562.25H147.58L136.06 603.28Z" fill="#CED1D3"/>
<path d="M433.141 500.56H43.391L45.251 507.63H0.460938L11.241 468.11L11.661 466.6H57.871L53.6909 481.52H442.791L433.141 500.56Z" fill="#CED1D3"/>
<path d="M892.16 479.33H846.26L857.46 438.3H903.67L892.16 479.33Z" fill="#CED1D3"/>
<path d="M884.93 403.21H858.32L864.81 379.42H891.61L884.93 403.21Z" fill="url(#paint4_linear_480_2)"/>
<path d="M605.54 236.89H578.92L585.42 213.09H612.22L605.54 236.89Z" fill="#CED1D3"/>
<path d="M666.64 183.54H646.34L651.29 165.38H671.74L666.64 183.54Z" fill="url(#paint5_linear_480_2)"/>
<path d="M55.8309 432.111H29.2109L35.7109 408.311H62.511L55.8309 432.111Z" fill="url(#paint6_linear_480_2)"/>
<path d="M97.771 463.471H77.4609L82.421 445.311H102.861L97.771 463.471Z" fill="#CED1D3"/>
<path d="M184.451 634.62H164.141L169.101 616.46H189.541L184.451 634.62Z" fill="url(#paint7_linear_480_2)"/>
<defs>
<linearGradient id="paint0_linear_480_2" x1="316.56" y1="426.19" x2="316.56" y2="202.24" gradientUnits="userSpaceOnUse">
<stop offset="0.1" stop-color="#FDCE21"/>
<stop offset="1" stop-color="#F69D1D"/>
</linearGradient>
<linearGradient id="paint1_linear_480_2" x1="255.07" y1="426.19" x2="255.07" y2="253.82" gradientUnits="userSpaceOnUse">
<stop offset="0.1" stop-color="#FDCE21"/>
<stop offset="1" stop-color="#F69D1D"/>
</linearGradient>
<linearGradient id="paint2_linear_480_2" x1="357.44" y1="426.19" x2="357.44" y2="253.82" gradientUnits="userSpaceOnUse">
<stop offset="0.1" stop-color="#FDCE21"/>
<stop offset="1" stop-color="#F69D1D"/>
</linearGradient>
<linearGradient id="paint3_linear_480_2" x1="459.07" y1="426.19" x2="459.07" y2="253.82" gradientUnits="userSpaceOnUse">
<stop offset="0.1" stop-color="#FDCE21"/>
<stop offset="1" stop-color="#F69D1D"/>
</linearGradient>
<linearGradient id="paint4_linear_480_2" x1="858.32" y1="391.31" x2="891.61" y2="391.31" gradientUnits="userSpaceOnUse">
<stop offset="0.1" stop-color="#FDCE21"/>
<stop offset="1" stop-color="#F69D1D"/>
</linearGradient>
<linearGradient id="paint5_linear_480_2" x1="646.34" y1="174.46" x2="671.74" y2="174.46" gradientUnits="userSpaceOnUse">
<stop offset="0.1" stop-color="#FDCE21"/>
<stop offset="1" stop-color="#F69D1D"/>
</linearGradient>
<linearGradient id="paint6_linear_480_2" x1="29.2109" y1="420.211" x2="62.511" y2="420.211" gradientUnits="userSpaceOnUse">
<stop offset="0.1" stop-color="#FDCE21"/>
<stop offset="1" stop-color="#F69D1D"/>
</linearGradient>
<linearGradient id="paint7_linear_480_2" x1="164.141" y1="625.54" x2="189.541" y2="625.54" gradientUnits="userSpaceOnUse">
<stop offset="0.1" stop-color="#FDCE21"/>
<stop offset="1" stop-color="#F69D1D"/>
</linearGradient>
</defs>
</svg>
