<svg width="904" height="723" viewBox="0 0 904 723" fill="none" xmlns="http://www.w3.org/2000/svg">
<path d="M781.369 449.551H822.689C821.129 455.821 819.379 462.001 817.489 468.131C771.959 615.571 634.589 722.691 472.199 722.691C423.938 722.752 376.156 713.114 331.692 694.35C287.227 675.586 246.986 648.079 213.359 613.461H272.809C329.519 658.446 399.804 682.876 472.189 682.761C612.269 682.761 731.429 593.161 775.449 468.131C777.596 462.024 779.569 455.831 781.369 449.551Z" fill="#121B44"/>
<path d="M162.811 174.56C166.744 168.067 170.864 161.734 175.171 155.56C240.411 61.5603 349.101 0.0703199 472.171 0.0703199C671.811 0.0303199 833.531 161.8 833.531 361.33C833.539 383.078 831.591 404.782 827.711 426.18H787.061C791.435 404.841 793.633 383.113 793.621 361.33C793.621 183.82 649.721 39.9203 472.201 39.9203C425.089 39.8743 378.547 50.2086 335.882 70.1884C293.218 90.1682 255.479 119.303 225.351 155.52C220.211 161.68 215.304 168.014 210.631 174.52L162.811 174.56Z" fill="#121B44"/>
<path d="M176.029 231.631L162.999 277.83H216.409L210.259 300.811H156.529L121.169 426.221H89.6992L144.549 231.631L152.649 202.891L542.489 202.271L534.789 231.01L176.029 231.631Z" fill="url(#paint0_linear_480_3)"/>
<path d="M233.43 253.85L226.56 277.85L190.61 403.24L184.01 426.24H275.81L282.4 403.24L318.4 277.83L325.27 253.83L233.43 253.85ZM258.99 403.24H215.26L251.26 277.83H294.98L258.99 403.24Z" fill="url(#paint1_linear_480_3)"/>
<path d="M353.581 277.831L339.601 326.631H406.701L399.831 350.601L384.741 403.241L378.151 426.221H286.381L292.961 403.241H361.361L376.441 350.601H308.051L314.931 326.631L328.921 277.831L335.791 253.851H427.571L420.691 277.831H353.581Z" fill="url(#paint2_linear_480_3)"/>
<path d="M455.22 277.831L441.23 326.631H508.33L501.46 350.601L486.38 403.241L479.78 426.221H388.01L394.6 403.241H462.99L478.08 350.601H409.69L416.57 326.631L430.56 277.831L437.43 253.851H529.2L522.32 277.831H455.22Z" fill="url(#paint3_linear_480_3)"/>
<path d="M210.63 174.56H557.02L554.81 183.14H600.28L601.04 180.45L609.11 151.66L611.8 142.11H565.55L562.02 155.52H175.2C170.88 161.74 166.76 168.074 162.84 174.52L210.63 174.56Z" fill="#121B44"/>
<path d="M567.745 353.397L597.698 306.027H607.462L587.274 401.031H577.378L592.684 328.723H592.42L562.995 375.301L553.495 328.723L553.231 328.987L537.924 401.031H528.028L548.217 306.027H557.849L567.745 353.397ZM684.997 306.027L683.282 314.34H643.829L636.572 348.119H664.941L663.225 356.432H634.856L627.071 392.718H667.448L665.732 401.031H615.46L635.648 306.027H684.997ZM758.706 326.611H748.809C750.393 318.694 746.038 312.493 737.99 312.493C717.933 312.493 710.808 339.674 707.641 354.321C704.738 368.176 700.516 394.566 719.517 394.566C729.413 394.566 736.934 387.176 739.045 377.808H748.941C744.719 393.246 733.239 402.879 717.405 402.879C691.279 402.879 693.654 374.245 697.877 354.057C702.363 333.209 712.787 304.18 739.573 304.18C752.768 304.18 760.685 313.416 758.706 326.611Z" fill="#121B44"/>
<path d="M567.745 353.397L567.07 353.538L567.418 355.206L568.328 353.766L567.745 353.397ZM597.698 306.027V305.337H597.318L597.115 305.658L597.698 306.027ZM607.462 306.027L608.137 306.171L608.314 305.337H607.462V306.027ZM587.274 401.031V401.721H587.833L587.949 401.175L587.274 401.031ZM577.378 401.031L576.702 400.888L576.526 401.721H577.378V401.031ZM592.684 328.723L593.359 328.866L593.535 328.033H592.684V328.723ZM592.42 328.723V328.033H592.04L591.836 328.354L592.42 328.723ZM562.995 375.301L562.319 375.439L562.662 377.12L563.578 375.67L562.995 375.301ZM553.495 328.723L554.171 328.585L553.914 327.327L553.007 328.235L553.495 328.723ZM553.231 328.987L552.743 328.499L552.598 328.643L552.556 328.843L553.231 328.987ZM537.924 401.031V401.721H538.483L538.599 401.175L537.924 401.031ZM528.028 401.031L527.353 400.888L527.176 401.721H528.028V401.031ZM548.217 306.027V305.337H547.658L547.542 305.884L548.217 306.027ZM557.849 306.027L558.524 305.886L558.41 305.337H557.849V306.027ZM568.328 353.766L598.281 306.396L597.115 305.658L567.162 353.029L568.328 353.766ZM597.698 306.717H607.462V305.337H597.698V306.717ZM606.787 305.884L586.599 400.888L587.949 401.175L608.137 306.171L606.787 305.884ZM587.274 400.341H577.378V401.721H587.274V400.341ZM578.053 401.174L593.359 328.866L592.009 328.58L576.702 400.888L578.053 401.174ZM592.684 328.033H592.42V329.413H592.684V328.033ZM591.836 328.354L562.412 374.932L563.578 375.67L593.003 329.091L591.836 328.354ZM563.671 375.163L554.171 328.585L552.818 328.861L562.319 375.439L563.671 375.163ZM553.007 328.235L552.743 328.499L553.719 329.474L553.982 329.211L553.007 328.235ZM552.556 328.843L537.25 400.888L538.599 401.175L553.906 329.13L552.556 328.843ZM537.924 400.341H528.028V401.721H537.924V400.341ZM528.703 401.175L548.891 306.171L547.542 305.884L527.353 400.888L528.703 401.175ZM548.217 306.717H557.849V305.337H548.217V306.717ZM557.173 306.168L567.07 353.538L568.421 353.256L558.524 305.886L557.173 306.168ZM684.997 306.027L685.673 306.167L685.844 305.337H684.997V306.027ZM683.282 314.34V315.03H683.844L683.958 314.48L683.282 314.34ZM643.829 314.34V313.65H643.271L643.154 314.195L643.829 314.34ZM636.572 348.119L635.897 347.974L635.718 348.809H636.572V348.119ZM664.941 348.119L665.617 348.259L665.788 347.429H664.941V348.119ZM663.225 356.432V357.122H663.788L663.901 356.572L663.225 356.432ZM634.856 356.432V355.742H634.298L634.182 356.287L634.856 356.432ZM627.071 392.718L626.396 392.574L626.217 393.408H627.071V392.718ZM667.448 392.718L668.124 392.858L668.295 392.028H667.448V392.718ZM665.732 401.031V401.721H666.295L666.408 401.171L665.732 401.031ZM615.46 401.031L614.785 400.888L614.607 401.721H615.46V401.031ZM635.648 306.027V305.337H635.089L634.973 305.884L635.648 306.027ZM684.321 305.888L682.606 314.201L683.958 314.48L685.673 306.167L684.321 305.888ZM683.282 313.65H643.829V315.03H683.282V313.65ZM643.154 314.195L635.897 347.974L637.246 348.264L644.503 314.485L643.154 314.195ZM636.572 348.809H664.941V347.429H636.572V348.809ZM664.265 347.98L662.55 356.293L663.901 356.572L665.617 348.259L664.265 347.98ZM663.225 355.742H634.856V357.122H663.225V355.742ZM634.182 356.287L626.396 392.574L627.746 392.863L635.531 356.577L634.182 356.287ZM627.071 393.408H667.448V392.028H627.071V393.408ZM666.772 392.579L665.057 400.892L666.408 401.171L668.124 392.858L666.772 392.579ZM665.732 400.341H615.46V401.721H665.732V400.341ZM616.134 401.175L636.323 306.171L634.973 305.884L614.785 400.888L616.134 401.175ZM635.648 306.717H684.997V305.337H635.648V306.717ZM758.706 326.611V327.301H759.3L759.388 326.714L758.706 326.611ZM748.809 326.611L748.133 326.476L747.968 327.301H748.809V326.611ZM707.641 354.321L706.967 354.175L706.966 354.179L707.641 354.321ZM739.045 377.808V377.118H738.493L738.372 377.656L739.045 377.808ZM748.941 377.808L749.607 377.99L749.845 377.118H748.941V377.808ZM697.877 354.057L697.202 353.912L697.201 353.916L697.877 354.057ZM758.706 325.921H748.809V327.301H758.706V325.921ZM749.486 326.747C750.308 322.638 749.602 318.898 747.564 316.17C745.52 313.433 742.201 311.803 737.99 311.803V313.183C741.827 313.183 744.71 314.654 746.459 316.996C748.215 319.348 748.894 322.668 748.133 326.476L749.486 326.747ZM737.99 311.803C727.586 311.803 720.607 318.871 715.875 327.585C711.14 336.305 708.551 346.847 706.967 354.175L708.315 354.467C709.898 347.148 712.455 336.776 717.088 328.244C721.724 319.706 728.337 313.183 737.99 313.183V311.803ZM706.966 354.179C705.515 361.104 703.709 371.265 704.679 379.718C705.165 383.946 706.354 387.83 708.706 390.666C711.083 393.533 714.586 395.256 719.517 395.256V393.876C714.947 393.876 711.853 392.3 709.768 389.785C707.658 387.241 706.521 383.661 706.05 379.56C705.108 371.354 706.864 361.393 708.316 354.462L706.966 354.179ZM719.517 395.256C729.797 395.256 737.551 387.579 739.718 377.96L738.372 377.656C736.317 386.774 729.028 393.876 719.517 393.876V395.256ZM739.045 378.498H748.941V377.118H739.045V378.498ZM748.276 377.626C744.127 392.795 732.898 402.189 717.405 402.189V403.569C733.581 403.569 745.311 393.698 749.607 377.99L748.276 377.626ZM717.405 402.189C711.005 402.189 706.43 400.438 703.196 397.573C699.953 394.699 697.986 390.639 696.934 385.889C694.824 376.363 696.443 364.284 698.552 354.198L697.201 353.916C695.088 364.019 693.408 376.351 695.587 386.188C696.679 391.12 698.753 395.48 702.281 398.606C705.817 401.74 710.742 403.569 717.405 403.569V402.189ZM698.551 354.202C700.788 343.806 704.494 331.437 710.938 321.681C717.369 311.945 726.481 304.87 739.573 304.87V303.49C725.879 303.49 716.386 310.929 709.787 320.92C703.201 330.891 699.451 343.46 697.202 353.912L698.551 354.202ZM739.573 304.87C746.007 304.87 751.078 307.118 754.305 310.896C757.533 314.675 758.989 320.07 758.023 326.509L759.388 326.714C760.401 319.958 758.889 314.138 755.354 309.999C751.819 305.861 746.334 303.49 739.573 303.49V304.87Z" fill="#121B44"/>
<path d="M863.611 449.551C861.831 455.817 859.861 462.011 857.701 468.131H514.021L452.581 574.571L441.811 593.161H131.051V574.571H431.111L492.561 468.131L503.281 449.551H863.611Z" fill="#121B44"/>
<path d="M135.599 603.311H89.6992L100.909 562.281H147.109L135.599 603.311Z" fill="#121B44"/>
<path d="M47.8697 500.59L45.8897 507.66H44.7797L42.9297 500.59H47.8697Z" fill="#CED1D3"/>
<path d="M432.68 500.591H42.93L44.78 507.661H0L10.78 468.131L11.2 466.631H57.41L53.23 481.551H442.32L432.68 500.591Z" fill="#121B44"/>
<path d="M891.691 479.36H845.801L857.001 438.33H903.211L891.691 479.36Z" fill="#121B44"/>
<path d="M884.47 403.24H857.85L864.35 379.44H891.15L884.47 403.24Z" fill="url(#paint4_linear_480_3)"/>
<path d="M605.081 236.921H578.461L584.961 213.121H611.761L605.081 236.921Z" fill="#121B44"/>
<path d="M666.181 183.56H645.881L650.831 165.41H671.271L666.181 183.56Z" fill="url(#paint5_linear_480_3)"/>
<path d="M55.37 432.14H28.75L35.25 408.34H62.05L55.37 432.14Z" fill="url(#paint6_linear_480_3)"/>
<path d="M97.31 463.49H77L81.96 445.34H102.4L97.31 463.49Z" fill="#121B44"/>
<path d="M183.98 634.64H163.68L168.64 616.49H189.08L183.98 634.64Z" fill="url(#paint7_linear_480_3)"/>
<defs>
<linearGradient id="paint0_linear_480_3" x1="316.089" y1="426.221" x2="316.089" y2="202.271" gradientUnits="userSpaceOnUse">
<stop offset="0.1" stop-color="#FDCE21"/>
<stop offset="1" stop-color="#F69D1D"/>
</linearGradient>
<linearGradient id="paint1_linear_480_3" x1="254.61" y1="426.22" x2="254.61" y2="253.85" gradientUnits="userSpaceOnUse">
<stop offset="0.1" stop-color="#FDCE21"/>
<stop offset="1" stop-color="#F69D1D"/>
</linearGradient>
<linearGradient id="paint2_linear_480_3" x1="356.971" y1="426.221" x2="356.971" y2="253.851" gradientUnits="userSpaceOnUse">
<stop offset="0.1" stop-color="#FDCE21"/>
<stop offset="1" stop-color="#F69D1D"/>
</linearGradient>
<linearGradient id="paint3_linear_480_3" x1="458.61" y1="426.221" x2="458.61" y2="253.851" gradientUnits="userSpaceOnUse">
<stop offset="0.1" stop-color="#FDCE21"/>
<stop offset="1" stop-color="#F69D1D"/>
</linearGradient>
<linearGradient id="paint4_linear_480_3" x1="857.85" y1="391.34" x2="891.15" y2="391.34" gradientUnits="userSpaceOnUse">
<stop offset="0.1" stop-color="#FDCE21"/>
<stop offset="1" stop-color="#F69D1D"/>
</linearGradient>
<linearGradient id="paint5_linear_480_3" x1="645.881" y1="174.49" x2="671.271" y2="174.49" gradientUnits="userSpaceOnUse">
<stop offset="0.1" stop-color="#FDCE21"/>
<stop offset="1" stop-color="#F69D1D"/>
</linearGradient>
<linearGradient id="paint6_linear_480_3" x1="28.75" y1="420.24" x2="62.05" y2="420.24" gradientUnits="userSpaceOnUse">
<stop offset="0.1" stop-color="#FDCE21"/>
<stop offset="1" stop-color="#F69D1D"/>
</linearGradient>
<linearGradient id="paint7_linear_480_3" x1="163.68" y1="625.57" x2="189.08" y2="625.57" gradientUnits="userSpaceOnUse">
<stop offset="0.1" stop-color="#FDCE21"/>
<stop offset="1" stop-color="#F69D1D"/>
</linearGradient>
</defs>
</svg>
